<svg version="1.1" xmlns="http://www.w3.org/2000/svg" viewBox="0 0 507 507">
  <defs>
    <style>
      .logo {
        animation: sway 2s ease-in-out infinite;
        transform-origin: center;
      }
      @keyframes sway {
        0%, 100% { transform: rotate(-2deg); }
        50% { transform: rotate(2deg); }
      }
    </style>
  </defs>
  
  <g class="logo">
    <!-- 主要紫色路径 -->
    <path fill="#95529E" d="M97.859161,383.000214 
      C97.859100,410.790771 97.859100,438.081360 97.859100,466.768829 
      C73.832428,447.087860 54.715355,424.848969 40.060329,398.867706 
      C12.692784,350.348969 1.609779,298.446808 9.371023,243.070953 
      C27.303146,115.126678 131.151001,36.786480 236.223282,28.929613 
      C352.345917,20.246445 461.899353,95.724480 493.044556,209.407318 
      C523.116089,319.170898 472.164581,420.266510 411.364288,465.703003 
      C411.364288,463.564087 411.364288,461.792236 411.364288,460.020386 
      C411.364288,429.688873 411.023010,399.351501 411.542114,369.028870 
      C411.733917,357.825409 403.353851,348.145538 390.975494,348.678986 
      C374.177704,349.402924 357.325256,348.859222 340.496246,348.859222 
      C338.720215,348.859222 336.944183,348.859222 334.819366,348.859222 
      C334.968933,347.078003 334.829407,345.881561 335.191528,344.863556 
      C339.429230,332.951111 343.752502,321.069153 348.027863,309.170074 
      C349.044647,306.340179 350.299377,305.380646 353.564911,306.817322 
      C386.841278,321.457428 422.065582,297.052582 420.343842,260.676605 
      C419.143372,235.313477 397.245972,215.193634 371.883942,216.150558 
      C344.972290,217.165955 324.928406,238.486267 325.721252,265.105713 
      C326.013153,274.907104 328.781494,283.785522 334.862946,291.509094 
      C336.731232,293.881866 336.747162,295.866730 335.638092,298.759735 
      C329.875336,313.791779 324.330811,328.912903 319.061890,344.124786 
      C317.894470,347.495239 316.639496,348.953308 312.902802,348.936707 
      C282.071930,348.799530 251.239655,348.774475 220.409225,348.955414 
      C216.058121,348.980927 214.864883,347.179169 213.973221,343.359253 
      C211.783981,333.980713 209.376770,324.623322 206.395386,315.473083 
      C205.083237,311.445984 205.280533,308.280823 207.108932,304.588470 
      C225.235703,267.982605 206.117828,225.996048 166.709488,215.636810 
      C130.784760,206.193314 93.774551,231.852600 89.843544,268.817749 
      C87.036842,295.210571 97.194115,315.832275 119.354034,329.344727 
      C141.201431,342.666687 163.969696,341.937103 185.904144,328.098175 
      C187.994919,326.779053 190.081284,325.452911 192.637955,323.833435 
      C194.872253,332.218201 196.982910,340.138916 199.306625,348.859222 
      C196.819916,348.859222 195.050308,348.859222 193.280701,348.859222 
      C167.948883,348.859222 142.617065,348.852844 117.285248,348.861969 
      C105.081047,348.866364 97.883018,356.155334 97.860664,368.502197 
      C97.852219,373.168213 97.859253,377.834259 97.859161,383.000214 z"/>
  </g>
</svg>